<mxfile host="app.diagrams.net" agent="Mozilla/5.0 (Windows NT 10.0; Win64; x64) AppleWebKit/537.36 (KHTML, like Gecko) Chrome/128.0.0.0 Safari/537.36 OPR/114.0.0.0" version="25.0.3">
  <diagram name="PÃ¡gina-1" id="Oxa--Onj7CHdVYycJnos">
    <mxGraphModel dx="1393" dy="763" grid="1" gridSize="10" guides="1" tooltips="1" connect="1" arrows="1" fold="1" page="1" pageScale="1" pageWidth="827" pageHeight="1169" math="0" shadow="0">
      <root>
        <mxCell id="0" />
        <mxCell id="1" parent="0" />
        <mxCell id="CADRxNsJ_4FacqAysLcx-1" value="INICIO" style="strokeWidth=2;html=1;shape=mxgraph.flowchart.start_1;whiteSpace=wrap;" vertex="1" parent="1">
          <mxGeometry x="364" y="30" width="100" height="60" as="geometry" />
        </mxCell>
        <mxCell id="CADRxNsJ_4FacqAysLcx-2" value="FIM" style="strokeWidth=2;html=1;shape=mxgraph.flowchart.start_1;whiteSpace=wrap;" vertex="1" parent="1">
          <mxGeometry x="364" y="790" width="100" height="60" as="geometry" />
        </mxCell>
        <mxCell id="CADRxNsJ_4FacqAysLcx-3" value="SALARIO" style="html=1;strokeWidth=2;shape=manualInput;whiteSpace=wrap;rounded=1;size=26;arcSize=11;" vertex="1" parent="1">
          <mxGeometry x="364" y="210" width="100" height="60" as="geometry" />
        </mxCell>
        <mxCell id="CADRxNsJ_4FacqAysLcx-4" value="NOME" style="html=1;strokeWidth=2;shape=manualInput;whiteSpace=wrap;rounded=1;size=26;arcSize=11;" vertex="1" parent="1">
          <mxGeometry x="364" y="120" width="100" height="60" as="geometry" />
        </mxCell>
        <mxCell id="CADRxNsJ_4FacqAysLcx-5" value="FATURAMENTO" style="html=1;strokeWidth=2;shape=manualInput;whiteSpace=wrap;rounded=1;size=26;arcSize=11;" vertex="1" parent="1">
          <mxGeometry x="358" y="310" width="106" height="70" as="geometry" />
        </mxCell>
        <mxCell id="CADRxNsJ_4FacqAysLcx-8" style="edgeStyle=orthogonalEdgeStyle;rounded=0;orthogonalLoop=1;jettySize=auto;html=1;exitX=1;exitY=0.5;exitDx=0;exitDy=0;exitPerimeter=0;entryX=0.5;entryY=0;entryDx=0;entryDy=0;" edge="1" parent="1" source="CADRxNsJ_4FacqAysLcx-6" target="CADRxNsJ_4FacqAysLcx-7">
          <mxGeometry relative="1" as="geometry" />
        </mxCell>
        <mxCell id="CADRxNsJ_4FacqAysLcx-9" value="SIM" style="edgeLabel;html=1;align=center;verticalAlign=middle;resizable=0;points=[];" vertex="1" connectable="0" parent="CADRxNsJ_4FacqAysLcx-8">
          <mxGeometry x="-0.2613" y="-4" relative="1" as="geometry">
            <mxPoint as="offset" />
          </mxGeometry>
        </mxCell>
        <mxCell id="CADRxNsJ_4FacqAysLcx-6" value="FATURAMENTO &amp;gt; 5000" style="strokeWidth=2;html=1;shape=mxgraph.flowchart.decision;whiteSpace=wrap;" vertex="1" parent="1">
          <mxGeometry x="334.5" y="419.5" width="153" height="90" as="geometry" />
        </mxCell>
        <mxCell id="CADRxNsJ_4FacqAysLcx-7" value="SALARIOFINAL = SALARIO +&amp;nbsp; 300" style="rounded=1;whiteSpace=wrap;html=1;absoluteArcSize=1;arcSize=14;strokeWidth=2;" vertex="1" parent="1">
          <mxGeometry x="520" y="519.5" width="210" height="50" as="geometry" />
        </mxCell>
        <mxCell id="CADRxNsJ_4FacqAysLcx-10" value="" style="strokeWidth=2;html=1;shape=mxgraph.flowchart.start_2;whiteSpace=wrap;" vertex="1" parent="1">
          <mxGeometry x="394" y="609.5" width="40" height="40" as="geometry" />
        </mxCell>
        <mxCell id="CADRxNsJ_4FacqAysLcx-11" style="edgeStyle=orthogonalEdgeStyle;rounded=0;orthogonalLoop=1;jettySize=auto;html=1;entryX=1;entryY=0.5;entryDx=0;entryDy=0;entryPerimeter=0;" edge="1" parent="1" source="CADRxNsJ_4FacqAysLcx-7" target="CADRxNsJ_4FacqAysLcx-10">
          <mxGeometry relative="1" as="geometry">
            <Array as="points">
              <mxPoint x="670" y="629.5" />
            </Array>
          </mxGeometry>
        </mxCell>
        <mxCell id="CADRxNsJ_4FacqAysLcx-12" style="edgeStyle=orthogonalEdgeStyle;rounded=0;orthogonalLoop=1;jettySize=auto;html=1;exitX=0;exitY=0.5;exitDx=0;exitDy=0;exitPerimeter=0;entryX=0;entryY=0.5;entryDx=0;entryDy=0;entryPerimeter=0;" edge="1" parent="1" source="CADRxNsJ_4FacqAysLcx-6" target="CADRxNsJ_4FacqAysLcx-10">
          <mxGeometry relative="1" as="geometry">
            <Array as="points">
              <mxPoint x="210" y="464.5" />
              <mxPoint x="210" y="629.5" />
            </Array>
          </mxGeometry>
        </mxCell>
        <mxCell id="CADRxNsJ_4FacqAysLcx-18" style="edgeStyle=orthogonalEdgeStyle;rounded=0;orthogonalLoop=1;jettySize=auto;html=1;entryX=0.5;entryY=0.183;entryDx=0;entryDy=0;entryPerimeter=0;" edge="1" parent="1" source="CADRxNsJ_4FacqAysLcx-1" target="CADRxNsJ_4FacqAysLcx-4">
          <mxGeometry relative="1" as="geometry" />
        </mxCell>
        <mxCell id="CADRxNsJ_4FacqAysLcx-22" style="edgeStyle=orthogonalEdgeStyle;rounded=0;orthogonalLoop=1;jettySize=auto;html=1;entryX=0.5;entryY=0.15;entryDx=0;entryDy=0;entryPerimeter=0;" edge="1" parent="1" source="CADRxNsJ_4FacqAysLcx-4" target="CADRxNsJ_4FacqAysLcx-3">
          <mxGeometry relative="1" as="geometry" />
        </mxCell>
        <mxCell id="CADRxNsJ_4FacqAysLcx-23" style="edgeStyle=orthogonalEdgeStyle;rounded=0;orthogonalLoop=1;jettySize=auto;html=1;entryX=0.528;entryY=0.143;entryDx=0;entryDy=0;entryPerimeter=0;" edge="1" parent="1" source="CADRxNsJ_4FacqAysLcx-3" target="CADRxNsJ_4FacqAysLcx-5">
          <mxGeometry relative="1" as="geometry" />
        </mxCell>
        <mxCell id="CADRxNsJ_4FacqAysLcx-25" style="edgeStyle=orthogonalEdgeStyle;rounded=0;orthogonalLoop=1;jettySize=auto;html=1;entryX=0.5;entryY=0;entryDx=0;entryDy=0;entryPerimeter=0;" edge="1" parent="1" source="CADRxNsJ_4FacqAysLcx-5" target="CADRxNsJ_4FacqAysLcx-6">
          <mxGeometry relative="1" as="geometry" />
        </mxCell>
        <mxCell id="CADRxNsJ_4FacqAysLcx-26" value="SALARIOFINAL" style="strokeWidth=2;html=1;shape=mxgraph.flowchart.display;whiteSpace=wrap;" vertex="1" parent="1">
          <mxGeometry x="364" y="690" width="100" height="60" as="geometry" />
        </mxCell>
        <mxCell id="CADRxNsJ_4FacqAysLcx-27" style="edgeStyle=orthogonalEdgeStyle;rounded=0;orthogonalLoop=1;jettySize=auto;html=1;entryX=0.5;entryY=0;entryDx=0;entryDy=0;entryPerimeter=0;" edge="1" parent="1" source="CADRxNsJ_4FacqAysLcx-10" target="CADRxNsJ_4FacqAysLcx-26">
          <mxGeometry relative="1" as="geometry" />
        </mxCell>
        <mxCell id="CADRxNsJ_4FacqAysLcx-28" style="edgeStyle=orthogonalEdgeStyle;rounded=0;orthogonalLoop=1;jettySize=auto;html=1;entryX=0.5;entryY=0;entryDx=0;entryDy=0;entryPerimeter=0;" edge="1" parent="1" source="CADRxNsJ_4FacqAysLcx-26" target="CADRxNsJ_4FacqAysLcx-2">
          <mxGeometry relative="1" as="geometry" />
        </mxCell>
      </root>
    </mxGraphModel>
  </diagram>
</mxfile>
